<svg version="1.1" id="Layer_1" xmlns="http://www.w3.org/2000/svg" xlink="http://www.w3.org/1999/xlink" x="0px" y="0px" width="512px" height="512px" viewBox="0 0 512 512" style="enable-background:new 0 0 512 512;" space="preserve" fill="#454646"><path d="M440.9,162.8L409.5,109c-1.8-3.1-6.3-3.3-8.5-0.4C323.7,213.3,301.3,299.1,286.9,375l-15.5,2.5	c16.1-127.3,28-194.4,56.2-324.6c1.1-4.9-2.1-9-7.1-9H191.6c-5,0-8.2,4.1-7.1,9c28.2,130.1,40.1,197.3,56.2,324.6l-15.5-2.5	c-14.4-75.9-36.8-161.7-114.1-266.4c-2.2-2.9-6.7-2.7-8.5,0.4l-31.4,53.8c-1.3,2.1-0.7,4.9,1.2,6.4c76,61.1,118.9,151.5,129.9,203	l-67.4-14.8L256,468l121.1-110.5l-67.4,14.8c11.1-51.6,53.9-142,129.9-203C441.6,167.6,442.1,164.9,440.9,162.8z"></path></svg>